<?xml version="1.0" standalone="no"?>
<!DOCTYPE svg PUBLIC "-//W3C//DTD SVG 20010904//EN"
 "http://www.w3.org/TR/2001/REC-SVG-20010904/DTD/svg10.dtd">
<svg version="1.0" xmlns="http://www.w3.org/2000/svg"
 width="260.000000pt" height="260.000000pt" viewBox="0 0 260.000000 260.000000"
 preserveAspectRatio="xMidYMid meet">
<metadata>
Created by potrace 1.11, written by Peter Selinger 2001-2013
</metadata>
<g transform="translate(0.000000,260.000000) scale(0.100000,-0.100000)"
fill="#000000" stroke="none">
<path d="M1150 2593 c-175 -29 -287 -62 -407 -119 -258 -121 -483 -343 -607
-597 -44 -91 -100 -249 -111 -317 -3 -19 -9 -55 -13 -80 -9 -57 -9 -278 0
-350 37 -305 199 -606 434 -810 168 -147 374 -248 604 -297 130 -27 382 -25
518 5 369 82 664 296 856 621 123 208 176 417 171 671 -2 80 -5 159 -8 175
-83 471 -376 839 -804 1012 -148 59 -275 84 -453 87 -85 2 -166 2 -180 -1z
m275 -118 c291 -25 600 -191 787 -425 182 -225 266 -460 270 -755 5 -430 -255
-851 -649 -1050 -124 -62 -165 -71 -254 -58 -145 23 -295 124 -358 242 -68
128 -69 144 -70 756 l-1 550 252 0 c139 0 261 1 271 4 13 3 17 14 17 56 l0 52
-257 1 c-142 0 -264 1 -271 1 -10 1 -12 67 -10 313 l3 313 55 3 c30 2 59 4 64
6 10 2 42 1 151 -9z m-400 -902 c0 -800 3 -951 20 -1036 30 -150 143 -299 289
-382 l61 -35 -35 -1 c-187 -5 -351 23 -505 86 -399 164 -675 525 -730 955 -11
93 -5 301 11 349 3 8 7 30 10 49 16 103 83 261 159 378 64 99 73 110 155 194
121 123 286 228 455 288 51 18 68 23 105 31 3 0 6 -394 5 -876z"/>
</g>
</svg>
